<svg width="1100" height="760" viewBox="0 0 1100 760" fill="none" xmlns="http://www.w3.org/2000/svg" role="img" aria-labelledby="title desc">
  <title id="title">Dipesh Girase Developer Power Dashboard</title>
  <desc id="desc">Animated circular progress meters for frontend, backend, database, AI, GitHub, problem solving, communication, teamwork, and UI UX skills.</desc>
  <defs>
    <linearGradient id="bg" x1="0" y1="0" x2="1100" y2="760" gradientUnits="userSpaceOnUse">
      <stop stop-color="#050816"/>
      <stop offset="0.48" stop-color="#0B1020"/>
      <stop offset="1" stop-color="#160B33"/>
    </linearGradient>
    <linearGradient id="neon" x1="0" y1="0" x2="1100" y2="760" gradientUnits="userSpaceOnUse">
      <stop stop-color="#00D4FF"/>
      <stop offset="0.55" stop-color="#8A5CFF"/>
      <stop offset="1" stop-color="#FF4DFF"/>
    </linearGradient>
    <filter id="glow" x="-40%" y="-40%" width="180%" height="180%">
      <feGaussianBlur stdDeviation="7" result="blur"/>
      <feColorMatrix in="blur" type="matrix" values="0 0 0 0 0  0 0 0 0 0.83  0 0 0 0 1  0 0 0 .75 0"/>
      <feBlend in="SourceGraphic"/>
    </filter>
    <filter id="softShadow" x="-20%" y="-20%" width="140%" height="140%">
      <feDropShadow dx="0" dy="18" stdDeviation="22" flood-color="#000000" flood-opacity=".45"/>
    </filter>
    <style>
      .card { fill: rgba(255,255,255,.055); stroke: rgba(255,255,255,.16); stroke-width: 1.2; filter: url(#softShadow); }
      .title { font: 800 34px 'Inter', 'Segoe UI', Arial, sans-serif; fill: #FFFFFF; letter-spacing: .4px; }
      .subtitle { font: 500 16px 'Inter', 'Segoe UI', Arial, sans-serif; fill: #9FB7D8; }
      .skill { font: 700 15px 'Inter', 'Segoe UI', Arial, sans-serif; fill: #EAF6FF; text-anchor: middle; }
      .percent { font: 900 21px 'Inter', 'Segoe UI', Arial, sans-serif; fill: #FFFFFF; text-anchor: middle; }
      .track { stroke: rgba(255,255,255,.12); stroke-width: 10; fill: none; }
      .ring { stroke: url(#neon); stroke-width: 10; stroke-linecap: round; fill: none; filter: url(#glow); transform: rotate(-90deg); transform-origin: center; animation: dash 1.7s ease-out both, pulse 2.8s ease-in-out infinite; }
      .spark { fill: #FFFFFF; opacity: .5; animation: twinkle 2.4s ease-in-out infinite; }
      .barTrack { fill: rgba(255,255,255,.09); }
      .barFill { fill: url(#neon); filter: url(#glow); animation: grow 1.5s ease-out both; transform-origin: left; }
      @keyframes dash { from { stroke-dashoffset: 283; } }
      @keyframes pulse { 0%,100% { opacity: .88; } 50% { opacity: 1; } }
      @keyframes twinkle { 0%,100% { opacity:.25; transform: scale(.8); } 50% { opacity:.9; transform: scale(1.2); } }
      @keyframes grow { from { transform: scaleX(.05); } to { transform: scaleX(1); } }
    </style>
  </defs>

  <rect width="1100" height="760" rx="30" fill="url(#bg)"/>
  <circle cx="128" cy="104" r="86" fill="#00D4FF" opacity=".09"/>
  <circle cx="950" cy="145" r="122" fill="#8A5CFF" opacity=".13"/>
  <circle cx="842" cy="650" r="145" fill="#00D4FF" opacity=".07"/>

  <g opacity=".8">
    <circle class="spark" cx="80" cy="68" r="2"/>
    <circle class="spark" cx="202" cy="164" r="1.8" style="animation-delay:.3s"/>
    <circle class="spark" cx="422" cy="78" r="2.2" style="animation-delay:.8s"/>
    <circle class="spark" cx="702" cy="92" r="1.7" style="animation-delay:1.1s"/>
    <circle class="spark" cx="1014" cy="252" r="2.3" style="animation-delay:.5s"/>
    <circle class="spark" cx="986" cy="590" r="1.9" style="animation-delay:1.4s"/>
    <circle class="spark" cx="118" cy="666" r="2.1" style="animation-delay:.9s"/>
  </g>

  <rect class="card" x="34" y="32" width="1032" height="696" rx="26"/>
  <path d="M64 118C224 40 332 198 500 114C668 30 782 88 1036 56" stroke="url(#neon)" stroke-width="2" opacity=".35"/>

  <text x="70" y="84" class="title">3D Developer Power Dashboard</text>
  <text x="70" y="112" class="subtitle">Animated skill meters • Glassmorphism • Neon engineering profile</text>

  <g transform="translate(840 56)">
    <rect x="0" y="0" width="174" height="70" rx="18" fill="rgba(0,212,255,.10)" stroke="rgba(0,212,255,.35)"/>
    <text x="87" y="28" class="subtitle" text-anchor="middle">Power Level</text>
    <text x="87" y="56" class="percent">87%</text>
  </g>

  <g transform="translate(72 156)">
    <g transform="translate(0 0)">
      <circle class="track" cx="60" cy="60" r="45"/>
      <circle class="ring" cx="60" cy="60" r="45" stroke-dasharray="254 283"/>
      <text class="percent" x="60" y="66">90%</text>
      <text class="skill" x="60" y="142">Frontend</text>
    </g>
    <g transform="translate(155 0)">
      <circle class="track" cx="60" cy="60" r="45"/>
      <circle class="ring" cx="60" cy="60" r="45" stroke-dasharray="269 283"/>
      <text class="percent" x="60" y="66">95%</text>
      <text class="skill" x="60" y="142">HTML5</text>
    </g>
    <g transform="translate(310 0)">
      <circle class="track" cx="60" cy="60" r="45"/>
      <circle class="ring" cx="60" cy="60" r="45" stroke-dasharray="254 283"/>
      <text class="percent" x="60" y="66">90%</text>
      <text class="skill" x="60" y="142">CSS3</text>
    </g>
    <g transform="translate(465 0)">
      <circle class="track" cx="60" cy="60" r="45"/>
      <circle class="ring" cx="60" cy="60" r="45" stroke-dasharray="241 283"/>
      <text class="percent" x="60" y="66">85%</text>
      <text class="skill" x="60" y="142">JavaScript</text>
    </g>
    <g transform="translate(620 0)">
      <circle class="track" cx="60" cy="60" r="45"/>
      <circle class="ring" cx="60" cy="60" r="45" stroke-dasharray="226 283"/>
      <text class="percent" x="60" y="66">80%</text>
      <text class="skill" x="60" y="142">React.js</text>
    </g>
    <g transform="translate(775 0)">
      <circle class="track" cx="60" cy="60" r="45"/>
      <circle class="ring" cx="60" cy="60" r="45" stroke-dasharray="212 283"/>
      <text class="percent" x="60" y="66">75%</text>
      <text class="skill" x="60" y="142">Tailwind</text>
    </g>

    <g transform="translate(0 176)">
      <circle class="track" cx="60" cy="60" r="45"/>
      <circle class="ring" cx="60" cy="60" r="45" stroke-dasharray="212 283"/>
      <text class="percent" x="60" y="66">75%</text>
      <text class="skill" x="60" y="142">Backend</text>
    </g>
    <g transform="translate(155 176)">
      <circle class="track" cx="60" cy="60" r="45"/>
      <circle class="ring" cx="60" cy="60" r="45" stroke-dasharray="198 283"/>
      <text class="percent" x="60" y="66">70%</text>
      <text class="skill" x="60" y="142">Node.js</text>
    </g>
    <g transform="translate(310 176)">
      <circle class="track" cx="60" cy="60" r="45"/>
      <circle class="ring" cx="60" cy="60" r="45" stroke-dasharray="198 283"/>
      <text class="percent" x="60" y="66">70%</text>
      <text class="skill" x="60" y="142">Express.js</text>
    </g>
    <g transform="translate(465 176)">
      <circle class="track" cx="60" cy="60" r="45"/>
      <circle class="ring" cx="60" cy="60" r="45" stroke-dasharray="198 283"/>
      <text class="percent" x="60" y="66">70%</text>
      <text class="skill" x="60" y="142">Database</text>
    </g>
    <g transform="translate(620 176)">
      <circle class="track" cx="60" cy="60" r="45"/>
      <circle class="ring" cx="60" cy="60" r="45" stroke-dasharray="212 283"/>
      <text class="percent" x="60" y="66">75%</text>
      <text class="skill" x="60" y="142">MongoDB</text>
    </g>
    <g transform="translate(775 176)">
      <circle class="track" cx="60" cy="60" r="45"/>
      <circle class="ring" cx="60" cy="60" r="45" stroke-dasharray="184 283"/>
      <text class="percent" x="60" y="66">65%</text>
      <text class="skill" x="60" y="142">MySQL</text>
    </g>

    <g transform="translate(0 352)">
      <circle class="track" cx="60" cy="60" r="45"/>
      <circle class="ring" cx="60" cy="60" r="45" stroke-dasharray="241 283"/>
      <text class="percent" x="60" y="66">85%</text>
      <text class="skill" x="60" y="142">Gen AI</text>
    </g>
    <g transform="translate(155 352)">
      <circle class="track" cx="60" cy="60" r="45"/>
      <circle class="ring" cx="60" cy="60" r="45" stroke-dasharray="226 283"/>
      <text class="percent" x="60" y="66">80%</text>
      <text class="skill" x="60" y="142">LLMs</text>
    </g>
    <g transform="translate(310 352)">
      <circle class="track" cx="60" cy="60" r="45"/>
      <circle class="ring" cx="60" cy="60" r="45" stroke-dasharray="269 283"/>
      <text class="percent" x="60" y="66">95%</text>
      <text class="skill" x="60" y="142">Prompting</text>
    </g>
    <g transform="translate(465 352)">
      <circle class="track" cx="60" cy="60" r="45"/>
      <circle class="ring" cx="60" cy="60" r="45" stroke-dasharray="241 283"/>
      <text class="percent" x="60" y="66">85%</text>
      <text class="skill" x="60" y="142">GitHub</text>
    </g>
    <g transform="translate(620 352)">
      <circle class="track" cx="60" cy="60" r="45"/>
      <circle class="ring" cx="60" cy="60" r="45" stroke-dasharray="226 283"/>
      <text class="percent" x="60" y="66">80%</text>
      <text class="skill" x="60" y="142">Problem Solving</text>
    </g>
    <g transform="translate(775 352)">
      <circle class="track" cx="60" cy="60" r="45"/>
      <circle class="ring" cx="60" cy="60" r="45" stroke-dasharray="254 283"/>
      <text class="percent" x="60" y="66">90%</text>
      <text class="skill" x="60" y="142">Teamwork</text>
    </g>
  </g>

  <g transform="translate(72 675)">
    <rect class="barTrack" x="0" y="0" width="956" height="12" rx="6"/>
    <rect class="barFill" x="0" y="0" width="832" height="12" rx="6"/>
    <text x="0" y="-12" class="subtitle">Overall developer readiness: focused on shipping modern full-stack and AI-powered products</text>
  </g>
</svg>
